<svg id="visual" viewBox="0 0 900 600" width="900" height="600" xmlns="http://www.w3.org/2000/svg" xmlns:xlink="http://www.w3.org/1999/xlink" version="1.1"><path d="M0 172L21.5 167C43 162 86 152 128.8 150.2C171.7 148.3 214.3 154.7 257.2 158.3C300 162 343 163 385.8 171.7C428.7 180.3 471.3 196.7 514.2 201.8C557 207 600 201 642.8 186.8C685.7 172.7 728.3 150.3 771.2 153.3C814 156.3 857 184.7 878.5 198.8L900 213L900 0L878.5 0C857 0 814 0 771.2 0C728.3 0 685.7 0 642.8 0C600 0 557 0 514.2 0C471.3 0 428.7 0 385.8 0C343 0 300 0 257.2 0C214.3 0 171.7 0 128.8 0C86 0 43 0 21.5 0L0 0Z" fill="#cbe0da" stroke-linecap="round" stroke-linejoin="miter"></path></svg>